<svg width="25" height="25" viewBox="0 0 25 25" fill="none" xmlns="http://www.w3.org/2000/svg">
<path fill-rule="evenodd" clip-rule="evenodd" d="M18 0.655762H7.33329C3.6514 0.655762 0.666626 3.64054 0.666626 7.32243V17.9891C0.666626 21.671 3.6514 24.6558 7.33329 24.6558H18C21.6818 24.6558 24.6666 21.671 24.6666 17.9891V7.32243C24.6666 3.64054 21.6818 0.655762 18 0.655762ZM22.3333 17.9891C22.326 20.3792 20.3901 22.3151 18 22.3224H7.33329C4.94309 22.3151 3.00728 20.3792 2.99996 17.9891V7.32243C3.00728 4.93223 4.94309 2.99642 7.33329 2.9891H18C20.3901 2.99642 22.326 4.93223 22.3333 7.32243V17.9891ZM19 7.65576C19.7364 7.65576 20.3333 7.0588 20.3333 6.32243C20.3333 5.58606 19.7364 4.9891 19 4.9891C18.2636 4.9891 17.6666 5.58606 17.6666 6.32243C17.6666 7.0588 18.2636 7.65576 19 7.65576ZM12.6666 6.65576C9.35292 6.65576 6.66663 9.34206 6.66663 12.6558C6.66663 15.9695 9.35292 18.6558 12.6666 18.6558C15.9804 18.6558 18.6666 15.9695 18.6666 12.6558C18.6702 11.0634 18.0392 9.53519 16.9132 8.4092C15.7872 7.28322 14.259 6.65222 12.6666 6.65576ZM8.99996 12.6558C8.99996 14.6808 10.6416 16.3224 12.6666 16.3224C14.6917 16.3224 16.3333 14.6808 16.3333 12.6558C16.3333 10.6307 14.6917 8.9891 12.6666 8.9891C10.6416 8.9891 8.99996 10.6307 8.99996 12.6558Z" fill="black"/>
</svg>
