<svg width="25" height="25" viewBox="0 0 25 25" fill="none" xmlns="http://www.w3.org/2000/svg">
<path fill-rule="evenodd" clip-rule="evenodd" d="M3.33329 0.655762H22C23.4728 0.655762 24.6666 1.84967 24.6666 3.32243V21.9891C24.6666 23.4619 23.4728 24.6558 22 24.6558H3.33329C1.86053 24.6558 0.666626 23.4619 0.666626 21.9891V3.32243C0.666626 1.84967 1.86053 0.655762 3.33329 0.655762ZM7.33329 20.6558C7.70148 20.6558 7.99996 20.3572 7.99996 19.9891V10.6558C7.99996 10.2876 7.70148 9.9891 7.33329 9.9891H5.33329C4.96511 9.9891 4.66663 10.2876 4.66663 10.6558V19.9891C4.66663 20.3572 4.96511 20.6558 5.33329 20.6558H7.33329ZM6.33329 8.65576C5.22872 8.65576 4.33329 7.76034 4.33329 6.65576C4.33329 5.55119 5.22872 4.65576 6.33329 4.65576C7.43787 4.65576 8.33329 5.55119 8.33329 6.65576C8.33329 7.76034 7.43787 8.65576 6.33329 8.65576ZM20 20.6558C20.3681 20.6558 20.6666 20.3572 20.6666 19.9891V13.8558C20.71 11.7368 19.1434 9.92846 17.04 9.6691C15.5693 9.53476 14.1444 10.2216 13.3333 11.4558V10.6558C13.3333 10.2876 13.0348 9.9891 12.6666 9.9891H10.6666C10.2985 9.9891 9.99996 10.2876 9.99996 10.6558V19.9891C9.99996 20.3572 10.2985 20.6558 10.6666 20.6558H12.6666C13.0348 20.6558 13.3333 20.3572 13.3333 19.9891V14.9891C13.3333 13.8846 14.2288 12.9891 15.3333 12.9891C16.4378 12.9891 17.3333 13.8846 17.3333 14.9891V19.9891C17.3333 20.3572 17.6318 20.6558 18 20.6558H20Z" fill="black"/>
</svg>
