<svg width="34" height="34" viewBox="0 0 34 34" fill="none" xmlns="http://www.w3.org/2000/svg">
<path d="M16.6666 3.27779C14.8427 3.27779 13.0366 3.63703 11.3515 4.33502C9.66645 5.03301 8.13534 6.05606 6.84563 7.34577C4.24095 9.95045 2.77765 13.4832 2.77765 17.1667C2.77765 23.3057 6.76378 28.514 12.2777 30.3613C12.9721 30.4724 13.1944 30.0418 13.1944 29.6668V27.3196C9.34713 28.1529 8.52768 25.4584 8.52768 25.4584C7.88878 23.8473 6.986 23.4168 6.986 23.4168C5.72211 22.5557 7.08323 22.5834 7.08323 22.5834C8.47212 22.6807 9.20824 24.014 9.20824 24.014C10.4166 26.1251 12.4583 25.5001 13.2499 25.1668C13.3749 24.264 13.736 23.6529 14.1249 23.3057C11.0416 22.9584 7.80545 21.764 7.80545 16.4723C7.80545 14.9306 8.33323 13.6945 9.23601 12.7084C9.09712 12.3612 8.61101 10.9167 9.3749 9.0417C9.3749 9.0417 10.5416 8.6667 13.1944 10.4584C14.2916 10.1528 15.486 10 16.6666 10C17.8472 10 19.0416 10.1528 20.1388 10.4584C22.7916 8.6667 23.9583 9.0417 23.9583 9.0417C24.7222 10.9167 24.2361 12.3612 24.0972 12.7084C25 13.6945 25.5278 14.9306 25.5278 16.4723C25.5278 21.7779 22.2777 22.9445 19.1805 23.2918C19.6805 23.7223 20.1388 24.5696 20.1388 25.8612V29.6668C20.1388 30.0418 20.3611 30.4863 21.0694 30.3613C26.5833 28.5001 30.5556 23.3057 30.5556 17.1667C30.5556 15.3428 30.1963 13.5368 29.4983 11.8517C28.8003 10.1666 27.7773 8.63548 26.4876 7.34577C25.1979 6.05606 23.6668 5.03301 21.9817 4.33502C20.2966 3.63703 18.4905 3.27779 16.6666 3.27779Z" fill="white"/>
</svg>
