<svg width="28" height="26" viewBox="0 0 28 26" fill="none" xmlns="http://www.w3.org/2000/svg">
<path d="M12.7612 0.952688C13.2195 -0.135923 14.7806 -0.135922 15.2389 0.952691L17.9439 7.37788C18.1372 7.83681 18.5741 8.15038 19.0756 8.1901L26.0969 8.7462C27.2866 8.84042 27.7689 10.3071 26.8626 11.0741L21.5131 15.6011C21.131 15.9245 20.9641 16.4319 21.0808 16.9153L22.7152 23.6842C22.9921 24.831 21.7292 25.7376 20.7107 25.123L14.6994 21.4956C14.2701 21.2365 13.7301 21.2365 13.3007 21.4956L7.28937 25.123C6.27087 25.7376 5.00799 24.831 5.2849 23.6842L6.91928 16.9153C7.03602 16.4319 6.86915 15.9245 6.48706 15.6011L1.13747 11.0741C0.231094 10.3071 0.713475 8.84042 1.90311 8.7462L8.92452 8.1901C9.42605 8.15038 9.86292 7.83681 10.0561 7.37788L12.7612 0.952688Z" fill="#006B6A"/>
</svg>
